<svg xmlns="http://www.w3.org/2000/svg" viewBox="0 0 402 124" class="etiBrandLogo mytrip css-1qgwmfm"><title id="brand-mytrip">Mytrip</title><path fill="#ff4957" d="M0 19.83h11v10.42h.83C15.29 23.59 22.24 18 32.94 18s18.76 5.28 22.79 13.22h1C61.57 21.92 69.5 18 79.64 18c16.13 0 26.55 11.39 26.55 27.22v46.84h-11V48.88c0-13.61-6.83-20.56-17.51-20.56-10.15 0-19.05 7.22-19.05 20.7V92h-11V46.78c0-11.55-7.79-18.48-17.93-18.48S11 36.36 11 48.58v43.48H0zM110.38 114h8.06c6.67 0 9.86-2.78 12.08-8.47l5.14-13.47h-2.92l-26.57-72.23h12.23l21.13 61.67h.83l22.38-61.67h12.37L140 110.39c-3.62 9.45-10.29 13.61-22 13.61h-7.6zm76.74-44.09V37.57h-12V19.82h13.36V0h18.73v19.82h19.29v17.75h-19.28v32.2c0 3.15 1.24 4.55 4.55 4.55h13.91v18h-15.84c-14.6 0-22.72-6.61-22.72-22.44m47.37-50.06h19.83v9.63h1.38A21.4 21.4 0 0 1 274.29 18h5.78v20h-7.44c-11 0-18.18 6.88-18.18 20.37v34h-20zM306.21.12l-29.76 58.32 17.79 9.06L324 9.19zm-16 80.53c0-6.47 5.1-11.55 12-11.55a11.63 11.63 0 1 1-12 11.55m36.77-60.83H347v6.74h1.52C352.14 22 358.06 18 368.11 18 386.85 18 402 34.4 402 56.15c0 21.19-14 38-32.77 38-11.16 0-17.63-4.82-20.66-9.23H347V124h-20.07zM381.61 56c0-11.29-7.85-18.86-17.49-18.86-10.47 0-17.33 8.67-17.33 18.86 0 12.11 8 19.13 17.49 19.13 9.78 0 17.34-7.71 17.34-19.13"></path></svg>