<svg xmlns="http://www.w3.org/2000/svg" viewBox="0 0 400 57" class="etiBrandLogo gotogate css-1rklnuo"><title id="brand-gotogate">GoToGate</title><path fill="#0b99f0" d="M28.81 0H14.73A14.72 14.72 0 0 0 0 14.71v3.7a6 6 0 0 0 6 6h2.17v-9.7a6.56 6.56 0 0 1 6.57-6.55h14.08a6.56 6.56 0 0 1 6.56 6.55V19h8.17v-4.28A14.73 14.73 0 0 0 28.82 0m58.25 42.31a6.56 6.56 0 0 1-6.56 6.55H66.43a6.57 6.57 0 0 1-6.57-6.55v-9.69H51.7v9.69A14.72 14.72 0 0 0 66.43 57h14.08a14.72 14.72 0 0 0 14.73-14.69v-9.69h-8.17zM80.51 0H66.43A14.73 14.73 0 0 0 51.7 14.72v3.7a6 6 0 0 0 6 6h2.17v-9.7a6.56 6.56 0 0 1 6.57-6.55h14.07a6.55 6.55 0 0 1 6.57 6.53v3.72a6 6 0 0 0 6 6h2.17v-9.7A14.73 14.73 0 0 0 80.52 0m115.4 42.31a6.57 6.57 0 0 1-6.57 6.55h-14.08a6.56 6.56 0 0 1-6.56-6.55v-9.69h-8.17v9.69A14.72 14.72 0 0 0 175.27 57h14.08a14.7 14.7 0 0 0 14.73-14.67v-9.71h-8.16zM189.35 0h-14.08a14.74 14.74 0 0 0-14.73 14.7v3.7a6 6 0 0 0 6 6h2.17v-9.68a6.56 6.56 0 0 1 6.57-6.55h14.08a6.56 6.56 0 0 1 6.56 6.55v3.7a6 6 0 0 0 6 6h2.17v-9.7A14.73 14.73 0 0 0 189.36 0m195.43 0a14.74 14.74 0 0 0-14.73 14.7v3.7a6 6 0 0 0 6 6h2.17v-9.68a6.57 6.57 0 0 1 6.57-6.55H400V.06h-15.2m-363 40.66h13.58v1.59a6.57 6.57 0 0 1-6.57 6.55H14.73a6.57 6.57 0 0 1-6.57-6.55v-9.69H0v9.69A14.7 14.7 0 0 0 14.71 57h14.1a14.72 14.72 0 0 0 14.73-14.69v-9.73H21.77zm228.57 0h13.6v1.59a6.56 6.56 0 0 1-6.56 6.55H243.3a6.57 6.57 0 0 1-6.57-6.55v-9.69h-8.16v9.69A14.72 14.72 0 0 0 243.3 57h14.08a14.72 14.72 0 0 0 14.73-14.69v-9.73h-21.77zm119.72-8.1v9.69A14.72 14.72 0 0 0 384.79 57H400v-8.1h-15.2a6.56 6.56 0 0 1-6.56-6.55v-1.64H400v-8.14h-29.94zM111.56 0v8.15h17.69v10.27a6 6 0 0 0 6 6h2.17V8.14h17.69V0zm25.85 32.62h-8.16V57h8.16zM318.37 0v8.15h17.69v10.27a6 6 0 0 0 1.75 4.23 6 6 0 0 0 4.25 1.75h2.17V8.14h17.68V0zm25.84 32.62h-8.16V57h8.16zM257.38 0H243.3a14.74 14.74 0 0 0-14.73 14.7v3.7a6 6 0 0 0 6 6h2.17v-9.68a6.5 6.5 0 0 1 1.93-4.63 6.56 6.56 0 0 1 4.64-1.92h14.07a6.57 6.57 0 0 1 6.62 6.52V19h8.16v-4.28A14.72 14.72 0 0 0 257.42 0m41.95 9.5 4.27 14.91h8.16l-7-24.4h-10.92l-4.74 16.57a6.09 6.09 0 0 0 1 5.39 6.14 6.14 0 0 0 4.92 2.44zm-14.8 23.12-7 24.38h8.16l4.67-16.28h17.88L312.92 57h8.16l-7-24.38z"></path></svg>