<?xml version="1.0" encoding="utf-8"?>
<!-- Generator: Adobe Illustrator 25.0.1, SVG Export Plug-In . SVG Version: 6.00 Build 0)  -->
<svg version="1.1" id="Layer_1" xmlns="http://www.w3.org/2000/svg" xmlns:xlink="http://www.w3.org/1999/xlink" x="0px" y="0px"
	 viewBox="0 0 300 90" style="enable-background:new 0 0 300 90;" xml:space="preserve">
<style type="text/css">
	.st0{fill:none;stroke:#000000;stroke-miterlimit:10;}
	.st1{fill:#838384;}
	.st2{fill:#065B66;}
	.st3{fill:#107780;}
	.st4{fill:#06A8B5;}
	.st5{fill:#D0D2D3;}
	.st6{fill:#929090;}
</style>
<rect x="210.77" y="35.03" class="st0" width="0" height="0"/>
<g>
	<g>
		<path class="st1" d="M19.01,61.77c-2.11,0-4.04-0.35-5.81-1.06c-1.77-0.71-3.29-1.76-4.58-3.16s-2.28-3.15-2.99-5.24
			c-0.71-2.09-1.06-4.5-1.06-7.21c0-2.7,0.34-5.05,1.03-7.06c0.69-2.01,1.68-3.75,3-5.24c1.28-1.44,2.81-2.54,4.57-3.3
			c1.76-0.76,3.73-1.14,5.91-1.14c1.08,0,2.1,0.08,3.04,0.24c0.94,0.16,1.82,0.36,2.63,0.61c0.69,0.22,1.4,0.49,2.13,0.81
			c0.73,0.32,1.45,0.68,2.15,1.07v5.17h-0.35c-0.38-0.35-0.86-0.76-1.45-1.25c-0.59-0.49-1.31-0.97-2.16-1.45
			c-0.82-0.45-1.72-0.81-2.68-1.1c-0.97-0.29-2.08-0.43-3.35-0.43c-1.37,0-2.67,0.28-3.9,0.84c-1.23,0.56-2.3,1.39-3.23,2.49
			c-0.91,1.1-1.62,2.47-2.12,4.13c-0.51,1.66-0.76,3.53-0.76,5.61c0,2.21,0.27,4.11,0.8,5.7c0.53,1.59,1.26,2.94,2.19,4.04
			c0.89,1.07,1.95,1.87,3.16,2.41s2.5,0.81,3.85,0.81c1.24,0,2.39-0.15,3.44-0.46c1.05-0.3,1.99-0.68,2.81-1.15
			c0.79-0.45,1.48-0.91,2.06-1.38c0.58-0.47,1.03-0.87,1.36-1.2h0.32V59c-0.71,0.33-1.37,0.65-2,0.95c-0.63,0.3-1.39,0.6-2.28,0.89
			c-0.94,0.3-1.81,0.53-2.61,0.69C21.34,61.7,20.3,61.77,19.01,61.77z"/>
		<path class="st1" d="M51.71,61.19h-4.07V47.43c0-1.11-0.05-2.15-0.16-3.11c-0.11-0.96-0.31-1.73-0.62-2.31
			c-0.33-0.61-0.79-1.06-1.39-1.35c-0.59-0.29-1.4-0.44-2.42-0.44c-1.01,0-2.05,0.27-3.13,0.81s-2.12,1.24-3.15,2.11v18.05h-4.07
			V27.51h4.07V39.7c1.21-1.08,2.41-1.91,3.59-2.49c1.18-0.58,2.43-0.87,3.74-0.87c2.38,0,4.24,0.78,5.58,2.35
			c1.34,1.57,2.01,3.83,2.01,6.81V61.19z"/>
		<path class="st1" d="M67.92,61.75c-3.85,0-6.84-1.08-8.97-3.26c-2.13-2.17-3.19-5.26-3.19-9.25c0-3.94,1.03-7.07,3.09-9.4
			s4.76-3.5,8.09-3.5c1.5,0,2.83,0.22,3.98,0.65s2.16,1.11,3.03,2.03c0.87,0.92,1.53,2.05,1.99,3.39c0.46,1.33,0.69,2.97,0.69,4.9
			v2.21H59.9c0,2.81,0.71,4.96,2.12,6.45c1.41,1.49,3.37,2.23,5.87,2.23c0.89,0,1.77-0.1,2.63-0.3c0.86-0.2,1.63-0.46,2.33-0.78
			c0.74-0.33,1.36-0.65,1.86-0.96c0.5-0.31,0.92-0.6,1.26-0.88h0.24v4.44c-0.48,0.19-1.07,0.42-1.77,0.7
			c-0.71,0.28-1.34,0.5-1.9,0.66c-0.79,0.22-1.51,0.38-2.15,0.5C69.72,61.7,68.91,61.75,67.92,61.75z M72.69,46.41
			c-0.03-1.1-0.16-2.04-0.39-2.83c-0.23-0.79-0.56-1.46-1-2.01c-0.48-0.61-1.09-1.07-1.83-1.38s-1.66-0.48-2.76-0.48
			c-1.08,0-2,0.16-2.76,0.49c-0.76,0.32-1.45,0.8-2.07,1.42c-0.61,0.64-1.07,1.34-1.39,2.11c-0.32,0.77-0.52,1.67-0.61,2.69H72.69z"
			/>
		<path class="st1" d="M94.26,58.62c-0.33,0.25-0.78,0.59-1.33,1.03c-0.56,0.44-1.09,0.79-1.61,1.05c-0.72,0.38-1.42,0.66-2.09,0.87
			c-0.67,0.2-1.61,0.3-2.82,0.3c-1,0-1.94-0.19-2.84-0.56s-1.68-0.9-2.36-1.58c-0.65-0.66-1.17-1.48-1.56-2.46
			c-0.39-0.97-0.58-2-0.58-3.08c0-1.67,0.35-3.1,1.06-4.27c0.71-1.18,1.82-2.11,3.35-2.8c1.36-0.62,2.96-1.05,4.8-1.29
			c1.85-0.24,3.84-0.42,5.97-0.53V44.5c0-0.95-0.14-1.72-0.43-2.3c-0.29-0.58-0.69-1.04-1.21-1.35c-0.52-0.33-1.15-0.55-1.9-0.66
			c-0.75-0.11-1.52-0.16-2.32-0.16c-0.94,0-2.04,0.14-3.31,0.42c-1.27,0.28-2.54,0.69-3.81,1.22h-0.24v-4.13
			c0.75-0.22,1.83-0.46,3.23-0.71c1.4-0.26,2.78-0.39,4.16-0.39c1.66,0,3.06,0.13,4.2,0.39c1.14,0.26,2.16,0.73,3.07,1.41
			c0.88,0.66,1.54,1.52,1.97,2.58c0.43,1.05,0.65,2.34,0.65,3.85v16.54h-4.05V58.62z M94.26,55.24v-6.71
			c-0.97,0.09-2.19,0.21-3.67,0.36s-2.67,0.36-3.58,0.64c-1.08,0.33-1.98,0.84-2.68,1.53c-0.71,0.69-1.06,1.64-1.06,2.87
			c0,1.38,0.39,2.43,1.17,3.14c0.78,0.71,1.92,1.06,3.42,1.06c1.28,0,2.45-0.28,3.48-0.83C92.38,56.73,93.35,56.05,94.26,55.24z"/>
		<path class="st1" d="M124.3,48.46c0,4.03-0.96,7.23-2.89,9.62c-1.93,2.39-4.36,3.58-7.3,3.58c-1.2,0-2.26-0.14-3.18-0.41
			c-0.92-0.27-1.87-0.7-2.83-1.28v10.13h-4.07V37.02h4.07v2.53c1.01-0.91,2.13-1.67,3.37-2.28c1.23-0.61,2.58-0.92,4.04-0.92
			c2.77,0,4.93,1.1,6.48,3.29C123.53,41.83,124.3,44.77,124.3,48.46z M120.11,48.92c0-2.76-0.44-4.89-1.32-6.42
			c-0.88-1.52-2.31-2.28-4.29-2.28c-1.15,0-2.27,0.26-3.34,0.77c-1.08,0.51-2.1,1.17-3.06,1.98v13.7c1.07,0.52,1.98,0.87,2.74,1.06
			s1.63,0.28,2.61,0.28c2.11,0,3.74-0.77,4.91-2.32C119.52,54.15,120.11,51.89,120.11,48.92z"/>
		<path class="st2" d="M141.25,31.41h-0.22c-0.36-0.13-0.88-0.26-1.56-0.38c-0.68-0.12-1.28-0.18-1.82-0.18
			c-1.72,0-2.94,0.39-3.67,1.16c-0.73,0.77-1.09,2.17-1.09,4.19v0.82h6.73v3.38h-6.6v20.8h-4.07v-20.8h-2.75v-3.38h2.75v-0.8
			c0-2.91,0.7-5.13,2.1-6.64c1.4-1.51,3.4-2.27,6.02-2.27c0.75,0,1.49,0.04,2.21,0.12c0.72,0.08,1.38,0.17,1.97,0.27V31.41z"/>
		<path class="st2" d="M155.6,58.62c-0.33,0.25-0.78,0.59-1.33,1.03c-0.55,0.44-1.09,0.79-1.61,1.05c-0.72,0.38-1.42,0.66-2.09,0.87
			c-0.67,0.2-1.61,0.3-2.82,0.3c-1,0-1.94-0.19-2.84-0.56s-1.68-0.9-2.36-1.58c-0.65-0.66-1.17-1.48-1.56-2.46
			c-0.39-0.97-0.58-2-0.58-3.08c0-1.67,0.35-3.1,1.06-4.27c0.71-1.18,1.82-2.11,3.35-2.8c1.36-0.62,2.96-1.05,4.8-1.29
			c1.85-0.24,3.84-0.42,5.97-0.53V44.5c0-0.95-0.14-1.72-0.43-2.3c-0.29-0.58-0.69-1.04-1.21-1.35c-0.52-0.33-1.16-0.55-1.91-0.66
			c-0.75-0.11-1.52-0.16-2.32-0.16c-0.94,0-2.04,0.14-3.31,0.42c-1.27,0.28-2.54,0.69-3.81,1.22h-0.24v-4.13
			c0.75-0.22,1.83-0.46,3.23-0.71c1.4-0.26,2.78-0.39,4.16-0.39c1.66,0,3.06,0.13,4.2,0.39c1.14,0.26,2.16,0.73,3.07,1.41
			c0.88,0.66,1.54,1.52,1.97,2.58c0.43,1.05,0.65,2.34,0.65,3.85v16.54h-4.05V58.62z M155.6,55.24v-6.71
			c-0.97,0.09-2.19,0.21-3.67,0.36c-1.48,0.15-2.67,0.36-3.58,0.64c-1.08,0.33-1.98,0.84-2.68,1.53c-0.71,0.69-1.06,1.64-1.06,2.87
			c0,1.38,0.39,2.43,1.17,3.14c0.78,0.71,1.92,1.06,3.42,1.06c1.28,0,2.45-0.28,3.48-0.83S154.69,56.05,155.6,55.24z"/>
		<path class="st2" d="M178.17,41.39h-0.22c-0.3-0.09-0.62-0.14-0.96-0.16c-0.34-0.02-0.75-0.03-1.22-0.03
			c-1.1,0-2.19,0.24-3.27,0.71c-1.08,0.48-2.11,1.18-3.07,2.12v17.16h-4.07V37.02h4.07v3.59c1.49-1.31,2.78-2.24,3.88-2.78
			c1.1-0.54,2.17-0.81,3.21-0.81c0.42,0,0.73,0.01,0.94,0.03c0.21,0.02,0.44,0.05,0.7,0.1V41.39z"/>
		<path class="st2" d="M191.61,61.75c-3.85,0-6.84-1.08-8.97-3.26c-2.13-2.17-3.19-5.26-3.19-9.25c0-3.94,1.03-7.07,3.09-9.4
			c2.06-2.33,4.76-3.5,8.09-3.5c1.5,0,2.83,0.22,3.98,0.65s2.16,1.11,3.03,2.03c0.87,0.92,1.53,2.05,1.99,3.39
			c0.46,1.33,0.69,2.97,0.69,4.9v2.21h-16.75c0,2.81,0.71,4.96,2.12,6.45s3.37,2.23,5.87,2.23c0.89,0,1.77-0.1,2.63-0.3
			c0.86-0.2,1.63-0.46,2.33-0.78c0.74-0.33,1.36-0.65,1.86-0.96c0.5-0.31,0.92-0.6,1.26-0.88h0.24v4.44
			c-0.48,0.19-1.07,0.42-1.78,0.7s-1.34,0.5-1.9,0.66c-0.79,0.22-1.51,0.38-2.15,0.5C193.41,61.7,192.59,61.75,191.61,61.75z
			 M196.37,46.41c-0.03-1.1-0.16-2.04-0.39-2.83c-0.23-0.79-0.56-1.46-1-2.01c-0.48-0.61-1.09-1.07-1.83-1.38s-1.66-0.48-2.76-0.48
			c-1.08,0-2,0.16-2.76,0.49c-0.76,0.32-1.45,0.8-2.07,1.42c-0.61,0.64-1.07,1.34-1.38,2.11c-0.32,0.77-0.52,1.67-0.61,2.69H196.37z
			"/>
		<path class="st2" d="M231.89,61.19V47.21c0-1.11-0.04-2.14-0.13-3.08c-0.09-0.94-0.27-1.68-0.54-2.22c-0.29-0.58-0.7-1-1.23-1.28
			c-0.53-0.27-1.25-0.41-2.16-0.41c-0.84,0-1.74,0.26-2.69,0.77c-0.96,0.51-1.95,1.25-2.98,2.22c0.01,0.25,0.03,0.54,0.05,0.88
			s0.03,0.74,0.03,1.2v15.91h-4.07V47.21c0-1.11-0.04-2.14-0.13-3.08c-0.09-0.94-0.27-1.68-0.54-2.22c-0.29-0.58-0.7-1-1.23-1.28
			c-0.53-0.27-1.26-0.41-2.17-0.41c-0.88,0-1.8,0.27-2.77,0.82c-0.97,0.55-1.91,1.25-2.81,2.1v18.05h-4.07V37.02h4.07v2.68
			c1.07-1.07,2.12-1.89,3.17-2.48c1.05-0.58,2.2-0.88,3.45-0.88c1.43,0,2.69,0.32,3.8,0.97c1.1,0.65,1.94,1.72,2.52,3.2
			c1.23-1.37,2.42-2.41,3.59-3.12c1.17-0.71,2.44-1.06,3.81-1.06c1.04,0,1.98,0.16,2.83,0.49c0.85,0.32,1.59,0.85,2.23,1.57
			c0.65,0.74,1.15,1.65,1.5,2.75s0.53,2.47,0.53,4.13v15.91H231.89z"/>
		<path class="st2" d="M255.18,58.62c-0.33,0.25-0.78,0.59-1.33,1.03c-0.56,0.44-1.09,0.79-1.61,1.05
			c-0.72,0.38-1.42,0.66-2.09,0.87c-0.67,0.2-1.61,0.3-2.83,0.3c-1,0-1.94-0.19-2.83-0.56s-1.68-0.9-2.36-1.58
			c-0.65-0.66-1.17-1.48-1.56-2.46c-0.39-0.97-0.58-2-0.58-3.08c0-1.67,0.35-3.1,1.06-4.27c0.71-1.18,1.83-2.11,3.35-2.8
			c1.36-0.62,2.96-1.05,4.8-1.29s3.84-0.42,5.97-0.53V44.5c0-0.95-0.14-1.72-0.43-2.3c-0.29-0.58-0.69-1.04-1.21-1.35
			c-0.52-0.33-1.15-0.55-1.9-0.66c-0.75-0.11-1.52-0.16-2.32-0.16c-0.94,0-2.04,0.14-3.31,0.42s-2.54,0.69-3.81,1.22h-0.24v-4.13
			c0.75-0.22,1.83-0.46,3.22-0.71c1.4-0.26,2.79-0.39,4.16-0.39c1.66,0,3.06,0.13,4.2,0.39c1.14,0.26,2.16,0.73,3.07,1.41
			c0.88,0.66,1.54,1.52,1.97,2.58c0.43,1.05,0.65,2.34,0.65,3.85v16.54h-4.05V58.62z M255.18,55.24v-6.71
			c-0.97,0.09-2.19,0.21-3.67,0.36c-1.48,0.15-2.67,0.36-3.58,0.64c-1.08,0.33-1.98,0.84-2.68,1.53s-1.06,1.64-1.06,2.87
			c0,1.38,0.39,2.43,1.17,3.14c0.78,0.71,1.92,1.06,3.42,1.06c1.28,0,2.45-0.28,3.48-0.83C253.29,56.73,254.27,56.05,255.18,55.24z"
			/>
		<path class="st2" d="M277.75,41.39h-0.22c-0.3-0.09-0.62-0.14-0.96-0.16c-0.34-0.02-0.75-0.03-1.22-0.03
			c-1.1,0-2.19,0.24-3.27,0.71c-1.08,0.48-2.11,1.18-3.07,2.12v17.16h-4.07V37.02h4.07v3.59c1.49-1.31,2.78-2.24,3.88-2.78
			c1.1-0.54,2.17-0.81,3.21-0.81c0.42,0,0.73,0.01,0.94,0.03c0.21,0.02,0.44,0.05,0.7,0.1V41.39z"/>
		<path class="st2" d="M288.23,61.67c-2.22,0-3.95-0.63-5.19-1.89c-1.24-1.26-1.86-3.26-1.86-5.98v-13.4h-2.75v-3.38h2.75v-6.95
			h4.07v6.95h7.49v3.38h-7.49v11.49c0,1.23,0.02,2.17,0.07,2.84c0.04,0.66,0.21,1.28,0.5,1.86c0.25,0.51,0.64,0.88,1.19,1.14
			c0.55,0.25,1.29,0.38,2.23,0.38c0.66,0,1.31-0.1,1.93-0.29c0.62-0.2,1.07-0.36,1.34-0.49h0.24v3.66
			c-0.77,0.22-1.54,0.39-2.33,0.51S288.89,61.67,288.23,61.67z"/>
	</g>
</g>
<g>
	<path class="st3" d="M141.32,81.64c-0.47,0.66-1.2,1.18-2.19,1.55c-0.99,0.37-2.11,0.56-3.34,0.56c-1.25,0-2.35-0.3-3.32-0.9
		c-0.97-0.6-1.72-1.44-2.25-2.53c-0.53-1.09-0.8-2.34-0.81-3.76v-2.01c0-2.21,0.56-3.95,1.67-5.23c1.11-1.28,2.61-1.92,4.49-1.92
		c1.64,0,2.96,0.42,3.95,1.25s1.59,1.98,1.78,3.45h-1.34c-0.2-1.17-0.67-2.05-1.43-2.66c-0.75-0.6-1.74-0.9-2.95-0.9
		c-1.49,0-2.66,0.53-3.53,1.58c-0.87,1.06-1.3,2.55-1.3,4.47v1.88c0,1.21,0.21,2.28,0.62,3.21c0.41,0.93,1,1.65,1.77,2.16
		s1.65,0.77,2.65,0.77c1.16,0,2.15-0.18,2.98-0.55c0.54-0.24,0.94-0.52,1.2-0.84v-4.11h-4.27v-1.14h5.61V81.64z"/>
	<path class="st3" d="M148.95,83.75c-1,0-1.91-0.25-2.73-0.74c-0.81-0.5-1.44-1.18-1.9-2.07c-0.45-0.88-0.68-1.88-0.68-2.98v-0.47
		c0-1.14,0.22-2.16,0.66-3.07c0.44-0.91,1.05-1.62,1.84-2.15c0.79-0.52,1.64-0.78,2.56-0.78c1.43,0,2.57,0.49,3.41,1.47
		c0.84,0.98,1.26,2.32,1.26,4.01v0.73h-8.43v0.25c0,1.34,0.38,2.46,1.15,3.35c0.77,0.89,1.73,1.34,2.9,1.34
		c0.7,0,1.32-0.13,1.85-0.38s1.02-0.66,1.46-1.22l0.82,0.62C152.17,83.06,150.78,83.75,148.95,83.75z M148.71,72.61
		c-0.98,0-1.81,0.36-2.48,1.08c-0.67,0.72-1.08,1.69-1.23,2.91h7.09v-0.14c-0.04-1.14-0.36-2.06-0.97-2.77
		C150.5,72.97,149.7,72.61,148.71,72.61z"/>
	<path class="st3" d="M157.51,68.69v3.03h2.45v1.07h-2.45v7.88c0,0.66,0.12,1.15,0.36,1.47s0.63,0.48,1.19,0.48
		c0.22,0,0.57-0.04,1.06-0.11l0.05,1.06c-0.34,0.12-0.81,0.18-1.4,0.18c-0.89,0-1.55-0.26-1.96-0.78c-0.41-0.52-0.61-1.29-0.61-2.3
		v-7.89h-2.17v-1.07h2.17v-3.03H157.51z"/>
	<path class="st3" d="M170.96,81.65l3.45-9.94h1.41l-5.05,13.83l-0.26,0.61c-0.65,1.43-1.65,2.15-3,2.15c-0.31,0-0.65-0.05-1-0.15
		l-0.01-1.08l0.68,0.07c0.64,0,1.16-0.16,1.56-0.48c0.4-0.32,0.73-0.86,1.01-1.63l0.58-1.59l-4.46-11.72h1.43L170.96,81.65z"/>
	<path class="st3" d="M176.51,77.45c0-1.14,0.22-2.16,0.66-3.07s1.06-1.62,1.87-2.12c0.8-0.51,1.72-0.76,2.74-0.76
		c1.57,0,2.85,0.55,3.82,1.65c0.98,1.1,1.46,2.57,1.46,4.39v0.27c0,1.14-0.22,2.17-0.66,3.09s-1.06,1.62-1.86,2.11
		s-1.71,0.74-2.74,0.74c-1.57,0-2.84-0.55-3.82-1.66c-0.98-1.1-1.47-2.56-1.47-4.38V77.45z M177.82,77.81c0,1.41,0.37,2.57,1.1,3.48
		c0.73,0.91,1.69,1.36,2.88,1.36c1.18,0,2.13-0.45,2.87-1.36c0.73-0.91,1.1-2.1,1.1-3.59v-0.25c0-0.9-0.17-1.73-0.5-2.48
		s-0.8-1.33-1.41-1.74s-1.3-0.62-2.08-0.62c-1.17,0-2.12,0.46-2.85,1.37c-0.74,0.91-1.1,2.11-1.1,3.59V77.81z"/>
	<path class="st3" d="M196.91,82.04c-0.79,1.14-2.04,1.71-3.77,1.71c-1.26,0-2.22-0.37-2.87-1.1c-0.66-0.73-0.99-1.82-1-3.25v-7.69
		h1.3v7.53c0,2.25,0.91,3.38,2.73,3.38c1.89,0,3.09-0.78,3.59-2.35v-8.55h1.31v11.82h-1.27L196.91,82.04z"/>
	<path class="st3" d="M206.61,72.83c-0.28-0.05-0.57-0.08-0.88-0.08c-0.82,0-1.51,0.23-2.07,0.68c-0.56,0.46-0.97,1.12-1.21,1.98
		v8.12h-1.3V71.72h1.28l0.02,1.88c0.69-1.4,1.8-2.1,3.33-2.1c0.36,0,0.65,0.05,0.86,0.14L206.61,72.83z"/>
	<path class="st3" d="M215.25,68.69v3.03h2.45v1.07h-2.45v7.88c0,0.66,0.12,1.15,0.35,1.47c0.24,0.32,0.63,0.48,1.19,0.48
		c0.22,0,0.57-0.04,1.06-0.11l0.05,1.06c-0.34,0.12-0.81,0.18-1.4,0.18c-0.9,0-1.55-0.26-1.96-0.78c-0.41-0.52-0.61-1.29-0.61-2.3
		v-7.89h-2.17v-1.07h2.17v-3.03H215.25z"/>
	<path class="st3" d="M225.42,72.83c-0.28-0.05-0.57-0.08-0.88-0.08c-0.82,0-1.51,0.23-2.07,0.68c-0.56,0.46-0.97,1.12-1.21,1.98
		v8.12h-1.3V71.72h1.28l0.02,1.88c0.69-1.4,1.8-2.1,3.33-2.1c0.36,0,0.65,0.05,0.86,0.14L225.42,72.83z"/>
	<path class="st3" d="M226.96,68.3c0-0.25,0.08-0.45,0.24-0.62s0.38-0.26,0.66-0.26c0.28,0,0.5,0.09,0.66,0.26s0.25,0.38,0.25,0.62
		s-0.08,0.45-0.25,0.62c-0.16,0.17-0.38,0.25-0.66,0.25c-0.28,0-0.5-0.08-0.66-0.25C227.04,68.75,226.96,68.55,226.96,68.3z
		 M228.5,83.53h-1.31V71.72h1.31V83.53z"/>
	<path class="st3" d="M241.1,77.74c0,1.84-0.41,3.3-1.22,4.39s-1.91,1.62-3.28,1.62c-1.62,0-2.85-0.57-3.71-1.7v6.03h-1.3V71.72
		h1.21l0.07,1.67c0.85-1.26,2.09-1.89,3.7-1.89c1.41,0,2.52,0.54,3.33,1.61s1.21,2.56,1.21,4.46V77.74z M239.79,77.52
		c0-1.51-0.31-2.7-0.93-3.57c-0.62-0.87-1.48-1.31-2.59-1.31c-0.8,0-1.49,0.19-2.06,0.58s-1.02,0.95-1.32,1.68v5.67
		c0.31,0.68,0.76,1.19,1.34,1.55c0.58,0.36,1.27,0.54,2.06,0.54c1.1,0,1.96-0.44,2.57-1.32C239.49,80.46,239.79,79.18,239.79,77.52z
		"/>
	<path class="st3" d="M253.12,83.75c-1,0-1.91-0.25-2.73-0.74c-0.81-0.5-1.44-1.18-1.89-2.07s-0.68-1.88-0.68-2.98v-0.47
		c0-1.14,0.22-2.16,0.66-3.07c0.44-0.91,1.05-1.62,1.84-2.15c0.79-0.52,1.64-0.78,2.56-0.78c1.43,0,2.57,0.49,3.41,1.47
		c0.84,0.98,1.26,2.32,1.26,4.01v0.73h-8.43v0.25c0,1.34,0.38,2.46,1.15,3.35c0.77,0.89,1.74,1.34,2.9,1.34
		c0.7,0,1.32-0.13,1.85-0.38s1.02-0.66,1.46-1.22l0.82,0.62C256.34,83.06,254.95,83.75,253.12,83.75z M252.88,72.61
		c-0.98,0-1.81,0.36-2.49,1.08c-0.67,0.72-1.08,1.69-1.23,2.91h7.09v-0.14c-0.04-1.14-0.36-2.06-0.97-2.77
		C254.67,72.97,253.87,72.61,252.88,72.61z"/>
	<path class="st3" d="M267.11,83.53c-0.13-0.37-0.22-0.92-0.25-1.65c-0.46,0.6-1.04,1.06-1.75,1.38s-1.46,0.49-2.25,0.49
		c-1.14,0-2.06-0.32-2.76-0.95c-0.7-0.63-1.05-1.43-1.05-2.4c0-1.15,0.48-2.06,1.44-2.73s2.29-1,4-1h2.37v-1.34
		c0-0.84-0.26-1.51-0.78-1.99c-0.52-0.48-1.28-0.73-2.28-0.73c-0.91,0-1.66,0.23-2.26,0.7c-0.6,0.47-0.9,1.03-0.9,1.68l-1.31-0.01
		c0-0.94,0.44-1.75,1.31-2.44c0.87-0.69,1.95-1.03,3.22-1.03c1.32,0,2.36,0.33,3.12,0.99c0.76,0.66,1.15,1.58,1.17,2.76v5.59
		c0,1.14,0.12,2,0.36,2.57v0.13H267.11z M263,82.59c0.87,0,1.66-0.21,2.34-0.63c0.69-0.42,1.19-0.99,1.5-1.69v-2.6h-2.34
		c-1.3,0.01-2.32,0.25-3.06,0.72c-0.74,0.46-1.1,1.1-1.1,1.91c0,0.66,0.25,1.21,0.74,1.65C261.58,82.38,262.22,82.59,263,82.59z"/>
	<path class="st3" d="M278.26,80.53c0-0.65-0.26-1.17-0.78-1.56s-1.3-0.7-2.35-0.92c-1.05-0.22-1.86-0.48-2.44-0.76
		c-0.58-0.29-1.01-0.64-1.29-1.05s-0.42-0.92-0.42-1.51c0-0.93,0.39-1.7,1.17-2.31s1.78-0.91,2.99-0.91c1.32,0,2.38,0.33,3.17,0.98
		c0.8,0.65,1.2,1.5,1.2,2.55h-1.31c0-0.69-0.29-1.27-0.87-1.73c-0.58-0.46-1.31-0.69-2.19-0.69c-0.86,0-1.55,0.19-2.07,0.57
		s-0.78,0.88-0.78,1.49c0,0.59,0.22,1.05,0.65,1.37c0.43,0.32,1.22,0.62,2.37,0.89c1.15,0.27,2.01,0.56,2.58,0.86s1,0.67,1.27,1.1
		s0.42,0.95,0.42,1.56c0,1-0.4,1.79-1.21,2.39c-0.8,0.6-1.85,0.9-3.15,0.9c-1.38,0-2.49-0.33-3.35-1c-0.86-0.67-1.28-1.51-1.28-2.53
		h1.31c0.05,0.76,0.37,1.36,0.97,1.79c0.59,0.43,1.38,0.64,2.35,0.64c0.91,0,1.65-0.2,2.21-0.6S278.26,81.14,278.26,80.53z"/>
	<path class="st3" d="M285.81,81.65l3.45-9.94h1.41l-5.05,13.83l-0.26,0.61c-0.65,1.43-1.65,2.15-3,2.15c-0.31,0-0.65-0.05-1-0.15
		l-0.01-1.08l0.68,0.07c0.64,0,1.16-0.16,1.56-0.48c0.4-0.32,0.73-0.86,1.01-1.63l0.58-1.59l-4.46-11.72h1.43L285.81,81.65z"/>
</g>
<polygon class="st2" points="260.86,14.79 288.16,3.79 269.45,19.56 "/>
<polygon class="st4" points="273.15,21.52 288.18,3.77 281.71,26.35 "/>
<polygon class="st5" points="273.15,21.52 269.03,28.73 275.6,22.88 "/>
<polygon class="st6" points="269.45,19.59 288.18,3.77 273.15,21.52 269.03,28.71 "/>
<g>
</g>
<g>
</g>
<g>
</g>
<g>
</g>
<g>
</g>
<g>
</g>
</svg>
