<svg xmlns="http://www.w3.org/2000/svg" xmlns:xlink="http://www.w3.org/1999/xlink" version="1.1" x="0px" y="0px" viewBox="-6.4 -12.8 140.8 172.8" style="enable-background:new 0 0 128 128;" xml:space="preserve"><g><path d="M96.1,67H38.7l-8.2-12.7c-0.9-1.4-2.4-2.2-4-2.2H10.8c-1.7,0-3.2,0.9-4.1,2.3c-0.9,1.5-0.9,3.2-0.1,4.7l16.2,29.3   c2.5,4.6,7.3,7.4,12.6,7.4h18.1l-8,14.7c-0.7,1.2-0.6,2.6,0.1,3.8c0.7,1.2,2,1.9,3.3,1.9h14.7c2,0,3.9-1,5.1-2.8L80,95.9h40   c1.1,0,2-0.9,2-2v-0.9C122,78.6,110.4,67,96.1,67z M114,80.4h-13.3c-3.2,0-5.9-2.6-5.9-5.9V71h1.2C103.5,71,110.1,74.7,114,80.4z    M82.6,91.9l2.8-4.4l-3.4-2.2l-16.9,26.1c-0.4,0.6-1,0.9-1.7,0.9H49l13.6-25l-3.5-1.9l-3.5,6.4H35.3c-3.8,0-7.3-2.1-9.1-5.4   L10.1,57.2c-0.2-0.3-0.1-0.6,0-0.8c0.1-0.1,0.3-0.4,0.7-0.4h15.8c0.3,0,0.5,0.1,0.6,0.3L36,70.1c0.4,0.6,1,0.9,1.7,0.9h53.2v3.5   c0,5.4,4.4,9.9,9.9,9.9h15.5c1,2.3,1.6,4.8,1.7,7.5H82.6z"/><rect x="36" y="75.4" width="5.9" height="4"/><rect x="61.1" y="75.4" width="5.9" height="4"/><rect x="73.7" y="75.4" width="5.9" height="4"/><rect x="48.5" y="75.4" width="5.9" height="4"/><path d="M61.4,59.4c0.7,0.4,1.4,0.6,2.2,0.6c0.8,0,1.6-0.2,2.3-0.7l8.6-5.3h33.1c2.4,0,4.4-2,4.4-4.4V16.1c0-2.4-2-4.4-4.4-4.4   H63.5c-2.4,0-4.4,2-4.4,4.4v39.4C59.1,57.1,60,58.6,61.4,59.4z M63.1,16.1c0-0.2,0.2-0.4,0.4-0.4h44.1c0.2,0,0.4,0.2,0.4,0.4v33.4   c0,0.2-0.2,0.4-0.4,0.4H73.9c-0.4,0-0.7,0.1-1,0.3l-9.1,5.6c-0.2,0.1-0.3,0.1-0.4,0s-0.2-0.2-0.2-0.4V16.1z"/><path d="M75.3,45.6h20.9c2.6,0,4.7-2.1,4.7-4.7V24.6c0-2.6-2.1-4.7-4.7-4.7H75.3c-2.6,0-4.7,2.1-4.7,4.7v16.3   C70.6,43.5,72.7,45.6,75.3,45.6z M83.1,23.9h5.2V28h-5.2V23.9z M74.6,24.6c0-0.4,0.3-0.7,0.7-0.7h3.8V30c0,1.1,0.9,2,2,2h9.2   c1.1,0,2-0.9,2-2v-6.2h3.8c0.4,0,0.7,0.3,0.7,0.7v16.3c0,0.4-0.3,0.7-0.7,0.7H75.3c-0.4,0-0.7-0.3-0.7-0.7V24.6z"/><rect x="78.7" y="35.4" width="3.4" height="4"/></g><text x="0.0" y="150.4" font-size="6.4" font-weight="bold" font-family="Arbeit Regular, Helvetica, Arial-Unicode, Arial, Sans-serif" fill="#000000">Created by Faah florist</text><text x="0.0" y="156.8" font-size="6.4" font-weight="bold" font-family="Arbeit Regular, Helvetica, Arial-Unicode, Arial, Sans-serif" fill="#000000">from Noun Project</text></svg>