<svg xmlns="http://www.w3.org/2000/svg" viewBox="0 0 95 118.75" x="0px" y="0px"><title>single-line</title><g><path d="M62.35,26.57a23.64,23.64,0,0,0-9-4.69c-3.4-.83-8-.79-9.85,2a4,4,0,0,0,1,5.27c-1.14,1.15-2.32.8-3.68.4s-2.75-.81-4,.38l-.36.33.32.37c.75.87,1.74,3,1.17,3.83-.22.29-.45.56-.66.81a3,3,0,0,0-1,2,2.22,2.22,0,0,0,1,1.47c.24.19.5.37.76.54A10.9,10.9,0,0,0,34.41,43c-1.09,2-1.66,4.88.32,6.64A7.19,7.19,0,0,0,37.23,51a4.83,4.83,0,0,1,2.62,1.63c1.08,1.56,1.34,3.51,1.61,5.57a20.23,20.23,0,0,0,.85,4.12c.61,1.71,1.55,2.68,2.78,2.88,2.38.39,4.73-2.27,5.39-3.1l.37-.46.39-.49a2,2,0,0,0,.47.69,2.32,2.32,0,0,0,2.63.69c1.74-.65,3-3.19,3.07-4.65a1.63,1.63,0,0,0-.29-1.17c-.43-.52-1.19-.59-2.09-.17a8.68,8.68,0,0,0-1.31.73l.05-.07A8.7,8.7,0,0,0,55,52.55a11.14,11.14,0,0,0-.12-1.62,8.71,8.71,0,0,0,2.56-.7,8.24,8.24,0,0,0,4.31-4.54,4.11,4.11,0,0,0,.12-.67,10.12,10.12,0,0,1,4.44.43,3.1,3.1,0,0,1,2,2.14,5.07,5.07,0,0,1,.19.68c.21.84.5,2,1.61,2.28l.26-1c-.51-.13-.68-.7-.9-1.55a6.44,6.44,0,0,0-.23-.8,4.09,4.09,0,0,0-2.53-2.7A10.78,10.78,0,0,0,61.86,44a3.46,3.46,0,0,0-.54-1.27,3,3,0,0,0-2.74-1,2.12,2.12,0,0,0-1.86,1.09A1.42,1.42,0,0,0,57,44.29a2.31,2.31,0,0,0,1.55.72,14,14,0,0,0,2.34.06c0,.11,0,.23-.07.35a7.22,7.22,0,0,1-3.76,3.89,8,8,0,0,1-2.35.64,6.69,6.69,0,0,0-4.48-5.13c-1.45-.4-2,.26-2.22.69-.57,1.16.25,3.26,1.3,4A7.7,7.7,0,0,0,53.9,51h0A10.25,10.25,0,0,1,54,52.55a7.59,7.59,0,0,1-1.14,4.1c-.13.22-.3.47-.48.73a8.82,8.82,0,0,0-1.19,2.16L50.06,61l-.36.46c-1.13,1.41-3,3-4.45,2.73-.84-.14-1.52-.89-2-2.23a19.33,19.33,0,0,1-.8-3.91c-.28-2.09-.56-4.25-1.77-6a5.75,5.75,0,0,0-3.12-2,6.44,6.44,0,0,1-2.17-1.1c-1.53-1.36-1-3.76-.11-5.4a10.17,10.17,0,0,1,3.59-3.61,24.87,24.87,0,0,0,7,2.2c1.46.25,5.67.54,7.5-1.13a2.63,2.63,0,0,0,.87-2.26c-.14-1.75-2.1-2.64-3.88-2.72a22.79,22.79,0,0,0-11.46,2.77A9.75,9.75,0,0,1,37.79,38c-.37-.3-.57-.56-.59-.78s.35-.79.79-1.3c.23-.27.47-.56.7-.87.94-1.29-.14-3.55-.9-4.65.74-.44,1.56-.23,2.73.11,1.46.43,3.27,1,4.88-.88a4.09,4.09,0,0,0,4.13-.95,2.09,2.09,0,0,0,.52-2.42A1.78,1.78,0,0,0,48,25.61c-1.19.28-2,1.47-2.64,2.44l-.24.34A2.91,2.91,0,0,1,44,26.67a2.83,2.83,0,0,1,.33-2.21c1.53-2.39,5.68-2.36,8.76-1.61a22.78,22.78,0,0,1,8.64,4.49c4.75,3.85,9.78,8.8,11.11,16.37a30.62,30.62,0,0,1,.46,5.71A22.1,22.1,0,0,1,64,67.26,29,29,0,0,1,39,71.4,24.73,24.73,0,0,1,24.12,58.33a25.71,25.71,0,0,1-.3-21.12c2.62-5.95,6.76-10.3,13-13.67l-.48-.88c-6.47,3.48-10.75,8-13.47,14.15a26.79,26.79,0,0,0,.31,21.95A25.73,25.73,0,0,0,38.69,72.35,30.07,30.07,0,0,0,64.6,68.07a23.11,23.11,0,0,0,9.69-18.64,30.87,30.87,0,0,0-.48-5.89C72.42,35.59,67,30.29,62.35,26.57ZM58.69,44a1.47,1.47,0,0,1-.89-.35c-.11-.14-.22-.34-.16-.48a1.31,1.31,0,0,1,1-.49H59a1.88,1.88,0,0,1,1.53.63,2.35,2.35,0,0,1,.36.75A12.84,12.84,0,0,1,58.69,44Zm-8.78,4.72a3,3,0,0,1-1-2.79.51.51,0,0,1,.51-.26,2.08,2.08,0,0,1,.55.09A5.64,5.64,0,0,1,53.7,50,6.66,6.66,0,0,1,49.91,48.74ZM52.13,60a9.92,9.92,0,0,1,3.31-2.63c.43-.19.8-.23.91-.1a.82.82,0,0,1,.06.48c-.07,1.15-1.14,3.3-2.42,3.78a1.4,1.4,0,0,1-1.57-.46A1.11,1.11,0,0,1,52.13,60ZM50.29,37c1.12,0,2.83.57,2.92,1.8a1.66,1.66,0,0,1-.54,1.44c-1.42,1.29-5.1,1.15-6.66.89a24.82,24.82,0,0,1-6.1-1.82A22,22,0,0,1,50.29,37Zm-4.12-8.4c.58-.85,1.23-1.83,2-2,.49-.11.85,0,1,.19A1.15,1.15,0,0,1,48.81,28,3.06,3.06,0,0,1,46,28.8Z"/></g><text x="0" y="110" fill="#000000" font-size="5px" font-weight="bold" font-family="'Helvetica Neue', Helvetica, Arial-Unicode, Arial, Sans-serif">Created by Ariel Pont</text><text x="0" y="115" fill="#000000" font-size="5px" font-weight="bold" font-family="'Helvetica Neue', Helvetica, Arial-Unicode, Arial, Sans-serif">from the Noun Project</text></svg>