<svg xmlns="http://www.w3.org/2000/svg" version="1.1" viewBox="-5.0 -10.0 110.0 135.0">
 <path d="m50 14.926c10.906 0 21.191 5.0703 27.828 13.723 6.6406 8.6484 8.8789 19.898 6.0547 30.43-2.8203 10.535-10.383 19.156-20.457 23.332-10.074 4.1719-21.516 3.4219-30.961-2.0312-9.4453-5.4531-15.816-14.984-17.238-25.797-1.4258-10.812 2.2617-21.672 9.9727-29.383 6.5703-6.5898 15.496-10.285 24.801-10.273zm33.293 57.875-1.6758 9.7266c-0.10156 0.60156 0.30078 1.1758 0.90625 1.2773 0.12891 0.023437 0.26562 0.023437 0.39453 0l9.6992-1.6719c0.60156-0.10156 1.0078-0.67187 0.90625-1.2773-0.10156-0.60547-0.67578-1.0117-1.2773-0.90625l-6.4805 1.1172h-0.003906c10.531-12.117 14.211-28.742 9.7734-44.172-4.4375-15.426-16.387-27.559-31.746-32.227-15.359-4.668-32.035-1.2422-44.309 9.1055-0.22656 0.19141-0.36719 0.46094-0.39062 0.75391-0.023438 0.29297 0.070312 0.58594 0.25781 0.80859 0.39453 0.46875 1.0938 0.52734 1.5625 0.12891 11.652-9.7891 27.457-13.051 42.035-8.6719 14.582 4.3789 25.973 15.805 30.305 30.398s1.0195 30.387-8.8125 42.008l1.0391-6.0273v0.003906c0.10547-0.60547-0.30078-1.1758-0.90625-1.2812-0.60156-0.10156-1.1758 0.30469-1.2773 0.90625zm-75.539-52.742 6.4844-1.1094c-10.516 12.117-14.184 28.734-9.7422 44.152 4.4414 15.418 16.383 27.543 31.734 32.211 15.352 4.668 32.023 1.25 44.297-9.0859 0.46484-0.39453 0.52344-1.0938 0.12891-1.5625s-1.0938-0.52734-1.5586-0.12891c-11.656 9.8008-27.465 13.066-42.047 8.6914-14.586-4.3789-25.984-15.809-30.316-30.41-4.3281-14.598-1.0117-30.395 8.8281-42.016l-1.0352 6.0234c-0.10547 0.60547 0.30078 1.1758 0.90625 1.2812 0.60156 0.10156 1.1758-0.30469 1.2773-0.90625l1.6719-9.6992c0.023438-0.12891 0.023438-0.26562 0-0.39453-0.10156-0.60547-0.67578-1.0117-1.2773-0.90625l-9.7227 1.6719c-0.60156 0.10547-1.0078 0.67578-0.90625 1.2812 0.10156 0.60156 0.67578 1.0078 1.2773 0.90625zm43.355-2.7969v17.234c3.4727-0.042969 6.9336-0.32422 10.367-0.84375-0.57031-2.4727-1.3477-4.8945-2.3203-7.2383-2.1641-5.1133-4.9844-8.4844-8.043-9.1445zm0 19.449v12.18h12.16c-0.046875-4.3867-0.48828-8.7617-1.3203-13.07-3.5898 0.55469-7.2109 0.85156-10.844 0.89453zm0 14.395v12.18c3.6328 0.042969 7.2539 0.33984 10.844 0.89453 0.83203-4.3086 1.2734-8.6836 1.3203-13.07zm0 14.395v17.238c3.0586-0.66406 5.8789-4.0352 8.043-9.1445v-0.003906c0.97266-2.3438 1.75-4.7656 2.3203-7.2383-3.4297-0.51953-6.8945-0.80078-10.363-0.84375zm-2.2188 17.238v-17.234c-3.4727 0.039063-6.9336 0.32422-10.367 0.84375 0.57031 2.4727 1.3477 4.8945 2.3203 7.2383 2.1641 5.1133 4.9844 8.4844 8.043 9.1445zm0-19.449v-12.18h-12.16c0.046875 4.3867 0.48828 8.7617 1.3203 13.07 3.5898-0.55469 7.2109-0.85156 10.844-0.89453zm0-14.395v-12.18c-3.6328-0.042969-7.2539-0.33984-10.844-0.89453-0.83203 4.3086-1.2734 8.6836-1.3203 13.07zm0-14.395v-17.238c-3.0586 0.66016-5.8789 4.0352-8.043 9.1445v0.003906c-0.97266 2.3438-1.75 4.7656-2.3203 7.2383 3.4297 0.52344 6.8945 0.80469 10.363 0.84375zm-31.727 14.391h17.348c0.046875-4.5156 0.5-9.0156 1.3594-13.449-0.45703-0.085937-0.91406-0.17969-1.3594-0.27344h-0.003907c-3.9805-0.79297-7.8398-2.1172-11.473-3.9375-3.625 5.1953-5.6641 11.328-5.8672 17.66zm48.324 0h17.348c-0.20313-6.332-2.2422-12.465-5.8672-17.66-3.6328 1.8203-7.4922 3.1445-11.473 3.9375-0.44922 0.09375-0.90234 0.1875-1.3594 0.27344h-0.003907c0.85938 4.4336 1.3125 8.9336 1.3594 13.449zm17.348 2.2227-17.348-0.003906c-0.046875 4.5156-0.5 9.0156-1.3594 13.449 0.45703 0.085937 0.91406 0.17969 1.3594 0.27344h0.003907c3.9805 0.79297 7.8398 2.1172 11.473 3.9375 3.625-5.1953 5.6641-11.328 5.8672-17.66zm-48.324 0-17.348-0.003906c0.20313 6.332 2.2422 12.465 5.8672 17.66 3.6328-1.8203 7.4922-3.1445 11.473-3.9375 0.44922-0.09375 0.90234-0.1875 1.3594-0.27344h0.003907c-0.85938-4.4336-1.3125-8.9336-1.3594-13.449zm-10.133-21.68c3.3633 1.6367 6.9219 2.8359 10.59 3.5625 0.44922 0.097656 0.90625 0.1875 1.3672 0.27734h0.003906c0.60156-2.6367 1.4297-5.2188 2.4648-7.7188 1.1406-2.918 2.8477-5.5781 5.0234-7.832-7.668 1.4727-14.562 5.625-19.449 11.711zm39.281 3.8398c0.46094-0.085938 0.91797-0.17969 1.3672-0.27734h0.003906c3.668-0.72656 7.2266-1.9258 10.59-3.5625-4.8906-6.0859-11.781-10.238-19.449-11.711 2.1758 2.2539 3.8828 4.9141 5.0195 7.832 1.0391 2.5 1.8633 5.082 2.4688 7.7188zm11.961 37.293c-3.3633-1.6367-6.9219-2.8359-10.59-3.5664-0.44922-0.097656-0.90625-0.1875-1.3672-0.27344h-0.003906c-0.60156 2.6367-1.4297 5.2188-2.4648 7.7188-1.1406 2.918-2.8477 5.5781-5.0234 7.832 7.668-1.4727 14.562-5.625 19.449-11.711zm-39.281-3.8398c-0.46094 0.085938-0.91797 0.17969-1.3672 0.27344h-0.003906c-3.668 0.73047-7.2266 1.9297-10.59 3.5664 4.8906 6.0859 11.781 10.238 19.449 11.711-2.1758-2.2539-3.8828-4.9141-5.0195-7.832-1.0391-2.5-1.8633-5.082-2.4688-7.7188z" fill-rule="evenodd"/>
<text x="0.0" y="117.5" font-size="5.0" font-weight="bold" font-family="Arbeit Regular, Helvetica, Arial-Unicode, Arial, Sans-serif" fill="#000000">Created by Nasikun</text><text x="0.0" y="122.5" font-size="5.0" font-weight="bold" font-family="Arbeit Regular, Helvetica, Arial-Unicode, Arial, Sans-serif" fill="#000000">from Noun Project</text></svg>