<svg xmlns="http://www.w3.org/2000/svg" version="1.1" viewBox="-5.0 -10.0 110.0 135.0">
 <path d="m56.406 90.117c-1.6016 0.25391-3.2188 0.40234-4.8398 0.44141v-4.5391c0-0.41797-0.16406-0.81641-0.45703-1.1094-0.29297-0.29297-0.69141-0.46094-1.1055-0.46094-0.41406 0-0.8125 0.16797-1.1055 0.46094-0.29297 0.29297-0.45703 0.69141-0.45703 1.1094v4.5078c-5.5781-0.71094-10.879-5.2461-14.777-12.648 4.832-1.9102 9.9609-2.9688 15.156-3.1289 1.2031 0.023438 2.7031-0.007812 2.7422-1.5898l0.003906-14.281c-0.003906-0.85938-0.70312-1.5547-1.5625-1.5547-0.86328 0-1.5586 0.69531-1.5625 1.5547v12.762c-5.5273 0.20312-10.98 1.3555-16.117 3.4102-3.125-7.4414-4.7734-15.414-4.8594-23.484h22.539c0.41406 0 0.8125-0.16406 1.1055-0.45703s0.45703-0.6875 0.45703-1.1055v-21.633c5.5273-0.20312 10.98-1.3516 16.125-3.3945 3.3164 7.9219 4.9805 16.441 4.8867 25.027 0 0.41797 0.16406 0.81641 0.45703 1.1094 0.29297 0.29297 0.69141 0.46094 1.1055 0.46094 0.41797 0 0.81641-0.16797 1.1094-0.46094s0.45703-0.69141 0.45312-1.1094c0.089844-9.0078-1.6602-17.941-5.1406-26.254 2.3477-1.0898 4.6172-2.3398 6.793-3.7422 7.457 6.7227 12.121 16 13.066 25.996 0 0.42969 0.17578 0.83984 0.48828 1.1328 0.30859 0.29688 0.72656 0.44922 1.1562 0.42969 0.42578-0.023437 0.82422-0.21875 1.1055-0.54297 0.27734-0.32422 0.41016-0.75 0.36719-1.1758-1.6367-22.309-22.41-40.629-44.785-39.547-23.023 0.20312-42.941 20.664-42.496 43.707-0.42969 23.125 19.547 43.578 42.68 43.719l-0.003906-0.003906c2.6719 0.074219 5.3398-0.10156 7.9766-0.52344 0.41016-0.066407 0.77734-0.28906 1.0195-0.62891 0.24219-0.33594 0.33984-0.75391 0.27344-1.1641s-0.29297-0.77734-0.62891-1.0195c-0.33984-0.23828-0.75781-0.33594-1.168-0.26953zm18.414-72.207c-1.8008 1.1172-3.668 2.1211-5.5898 3.0117-1.832-3.668-4.3203-6.9688-7.3516-9.7344 4.6875 1.4375 9.0703 3.7148 12.941 6.7227zm-23.254-8.4258c5.5781 0.71094 10.883 5.2539 14.785 12.66-4.7227 1.8555-9.7188 2.9023-14.785 3.1016zm-3.125 38.957h-20.977c0.085937-8.0586 1.7344-16.027 4.8516-23.465 5.1406 2.043 10.594 3.1914 16.125 3.3945zm0-38.969v15.773c-5.0664-0.19922-10.066-1.2461-14.785-3.1016 3.9258-7.4531 9.2695-12.012 14.785-12.668zm-10.336 1.7188c-3.0156 2.7695-5.5 6.0664-7.3281 9.7305-1.9258-0.88672-3.7891-1.8945-5.5938-3.0117 3.8672-3.0039 8.2422-5.2812 12.922-6.7188zm-15.449 8.8203c2.1758 1.4023 4.4414 2.6523 6.7891 3.7383-3.2812 7.8242-5.0156 16.211-5.1055 24.691h-14.914c0.41016-10.867 5.1758-21.117 13.23-28.43zm-13.23 31.555h14.918-0.003906c0.089844 8.4922 1.8281 16.887 5.1133 24.715-2.3477 1.082-4.6133 2.3281-6.7852 3.7305-8.0586-7.3125-12.832-17.566-13.242-28.445zm15.766 30.539c1.8008-1.1133 3.668-2.1133 5.5938-2.9961 1.8281 3.6602 4.3164 6.9531 7.3398 9.7148-4.6836-1.4375-9.0664-3.7148-12.934-6.7188z"/>
 <path d="m93.656 84.664-7.1523-19.891 5.2344-4.9062c5.418-5.707-2.7578-13.883-8.4648-8.3906l-4.8711 5.1992-19.891-7.1602c-0.57031-0.20312-1.207-0.0625-1.6367 0.36719l-3.375 3.375h0.003906c-0.33594 0.33984-0.5 0.81641-0.44141 1.2891 0.058594 0.47656 0.32812 0.89844 0.73828 1.1523l16.262 9.8242-9.5781 10.254-6.2148-0.69141v0.003906c-0.47266-0.058594-0.94531 0.10938-1.2773 0.44531l-3.1094 3.1094h-0.003906c-0.375 0.38672-0.53125 0.9375-0.40625 1.4609 0.125 0.52734 0.50781 0.94922 1.0156 1.1289l8.5898 2.8594 2.8633 8.5898c0.17578 0.50781 0.60156 0.89453 1.125 1.0156 0.52734 0.125 1.0781-0.027344 1.4609-0.40625l3.1094-3.1094c0.33594-0.33594 0.5-0.80469 0.44922-1.2773l-0.69141-6.2188 10.254-9.5781 9.8281 16.262v0.003906c0.25 0.41016 0.67188 0.68359 1.1484 0.74219 0.47656 0.058593 0.95312-0.10547 1.293-0.44531l3.375-3.375c0.42578-0.42578 0.57031-1.0625 0.36328-1.6328zm-4.5391 1.3867-9.7891-16.203c-0.24219-0.40234-0.65625-0.67578-1.1211-0.73828-0.46875-0.066406-0.9375 0.082031-1.2812 0.40625l-12.238 11.426c-0.35938 0.33594-0.53906 0.82422-0.48438 1.3125l0.69531 6.25-0.78906 0.79297-2.3125-6.9297c-0.15625-0.46875-0.52344-0.83594-0.98828-0.98828l-6.9297-2.3086 0.79297-0.79297 6.25 0.69531h-0.003906c0.49219 0.050782 0.97656-0.12891 1.3125-0.48828l11.43-12.234c0.31641-0.34766 0.46484-0.81641 0.39844-1.2812-0.0625-0.46484-0.33203-0.875-0.73047-1.125l-16.207-9.7891 1.2617-1.2617 19.926 7.168c0.58984 0.21094 1.2461 0.054687 1.6719-0.40234l5.5391-5.9102c1.0977-1.1016 2.8828-1.1094 3.9922-0.019532s1.1328 2.875 0.050781 3.9922l-5.9453 5.5742c-0.45703 0.42578-0.61328 1.082-0.40234 1.668l7.168 19.926z"/>
<text x="0.0" y="117.5" font-size="5.0" font-weight="bold" font-family="Arbeit Regular, Helvetica, Arial-Unicode, Arial, Sans-serif" fill="#000000">Created by yus</text><text x="0.0" y="122.5" font-size="5.0" font-weight="bold" font-family="Arbeit Regular, Helvetica, Arial-Unicode, Arial, Sans-serif" fill="#000000">from Noun Project</text></svg>