<svg xmlns="http://www.w3.org/2000/svg" xmlns:xlink="http://www.w3.org/1999/xlink" version="1.1" x="0px" y="0px" viewBox="0 0 48 60" style="enable-background:new 0 0 48 48;" xml:space="preserve"><path d="M42.75,15.74c-0.61-1.39-1.39-2.69-2.28-3.9c-0.03-0.1-0.1-0.18-0.18-0.24c-1.12-1.46-2.42-2.77-3.89-3.89  c-0.06-0.08-0.14-0.15-0.24-0.18C32.75,5.01,28.55,3.5,24,3.5s-8.75,1.51-12.16,4.03c-0.1,0.03-0.18,0.1-0.24,0.18  c-1.46,1.12-2.77,2.42-3.89,3.89c-0.08,0.06-0.15,0.14-0.18,0.24c-0.89,1.21-1.67,2.51-2.28,3.9c-0.02,0.03-0.04,0.07-0.05,0.1  C4.11,18.35,3.5,21.1,3.5,24s0.61,5.65,1.7,8.15c0.01,0.04,0.03,0.07,0.05,0.1c0.61,1.39,1.39,2.69,2.28,3.9  c0.03,0.1,0.1,0.18,0.18,0.24c1.12,1.46,2.42,2.77,3.89,3.89c0.06,0.08,0.14,0.15,0.24,0.18c3.41,2.52,7.6,4.03,12.16,4.03  s8.75-1.51,12.16-4.03c0.1-0.03,0.18-0.1,0.24-0.18c1.46-1.12,2.77-2.42,3.89-3.89c0.08-0.06,0.15-0.14,0.18-0.24  c0.89-1.21,1.67-2.51,2.28-3.9c0.02-0.03,0.04-0.07,0.05-0.1c1.09-2.5,1.7-5.26,1.7-8.15s-0.61-5.65-1.7-8.15  C42.79,15.81,42.77,15.78,42.75,15.74z M21.8,5.05c-0.42,0.65-0.81,1.48-1.15,2.45h-1.68C19.82,6.39,20.78,5.55,21.8,5.05z   M15.31,12.5c-0.33,0.94-0.61,1.95-0.86,3h-3.49c0.38-1.06,0.83-2.06,1.35-3H15.31z M12.89,11.5c0.7-1.12,1.49-2.12,2.35-3h1.91  c-0.53,0.9-1.02,1.91-1.45,3H12.89z M18.5,24.5c0.01,1,0.03,2,0.08,3h-3.92c-0.09-0.98-0.14-1.98-0.15-3H18.5z M14.51,23.5  c0.01-1.02,0.06-2.02,0.15-3h3.92c-0.04,1-0.07,2-0.08,3H14.51z M18.63,28.5c0.06,1.02,0.14,2.02,0.24,3h-3.64  c-0.2-0.96-0.35-1.97-0.47-3H18.63z M18.98,32.5c0.12,1.04,0.26,2.04,0.43,3h-3.06c-0.34-0.94-0.63-1.94-0.88-3H18.98z M18.63,19.5  h-3.87c0.12-1.03,0.27-2.04,0.47-3h3.64C18.77,17.48,18.69,18.48,18.63,19.5z M14.24,16.5c-0.2,0.97-0.36,1.97-0.47,3H9.91  c0.18-1.03,0.41-2.04,0.71-3H14.24z M13.66,20.5c-0.09,0.98-0.14,1.98-0.15,3H9.52c0.02-1.02,0.1-2.02,0.23-3H13.66z M13.51,24.5  c0.01,1.02,0.06,2.02,0.15,3H9.75c-0.13-0.98-0.21-1.98-0.23-3H13.51z M13.76,28.5c0.12,1.03,0.28,2.03,0.47,3h-3.62  c-0.3-0.96-0.53-1.97-0.71-3H13.76z M14.46,32.5c0.25,1.05,0.53,2.06,0.86,3h-3c-0.51-0.94-0.96-1.94-1.35-3H14.46z M15.7,36.5  c0.43,1.09,0.92,2.1,1.45,3h-1.91c-0.86-0.88-1.66-1.88-2.35-3H15.7z M16.72,36.5h2.87c0.21,1.08,0.46,2.09,0.73,3h-2.06  C17.69,38.62,17.17,37.62,16.72,36.5z M18.98,15.5h-3.51c0.25-1.06,0.55-2.06,0.88-3h3.06C19.24,13.46,19.1,14.46,18.98,15.5z   M16.72,11.5c0.46-1.12,0.98-2.12,1.54-3h2.06c-0.27,0.91-0.52,1.92-0.73,3H16.72z M17.8,7.5h-1.49c1.01-0.86,2.1-1.56,3.27-2.06  C18.94,6.01,18.35,6.7,17.8,7.5z M16.68,5.94c-0.64,0.46-1.25,0.99-1.84,1.56h-1.19C14.61,6.9,15.62,6.37,16.68,5.94z M12.22,8.5  h1.67c-0.79,0.9-1.5,1.91-2.14,3H9.05C9.99,10.38,11.06,9.38,12.22,8.5z M8.29,12.5h2.89c-0.49,0.94-0.9,1.95-1.26,3H6.48  C6.99,14.44,7.6,13.44,8.29,12.5z M6,16.5h3.58c-0.29,0.97-0.53,1.97-0.7,3H5.05C5.29,18.47,5.6,17.46,6,16.5z M4.83,20.5h3.91  c-0.13,0.98-0.21,1.98-0.22,3H4.53C4.55,22.48,4.65,21.48,4.83,20.5z M4.53,24.5h3.99c0.02,1.02,0.1,2.02,0.22,3H4.83  C4.65,26.52,4.55,25.52,4.53,24.5z M5.05,28.5h3.84c0.18,1.03,0.41,2.03,0.7,3H6C5.6,30.54,5.29,29.53,5.05,28.5z M6.48,32.5h3.44  c0.36,1.05,0.78,2.06,1.26,3H8.29C7.6,34.56,6.99,33.56,6.48,32.5z M9.05,36.5h2.69c0.64,1.09,1.35,2.1,2.14,3h-1.67  C11.06,38.62,9.99,37.62,9.05,36.5z M13.66,40.5h1.19c0.59,0.57,1.19,1.1,1.84,1.56C15.62,41.63,14.61,41.1,13.66,40.5z M16.31,40.5  h1.49c0.55,0.8,1.15,1.49,1.78,2.06C18.41,42.06,17.32,41.36,16.31,40.5z M18.96,40.5h1.68c0.34,0.97,0.73,1.8,1.15,2.45  C20.78,42.45,19.82,41.61,18.96,40.5z M23.5,43.34c-0.62-0.35-1.24-1.33-1.8-2.84h1.8V43.34z M23.5,39.5h-2.14  c-0.27-0.88-0.53-1.88-0.75-3h2.9V39.5z M23.5,35.5h-3.08c-0.17-0.93-0.31-1.94-0.44-3h3.52V35.5z M23.5,31.5h-3.63  c-0.1-0.96-0.18-1.96-0.24-3h3.87V31.5z M23.5,27.5h-3.92c-0.04-0.97-0.07-1.97-0.07-3h3.99V27.5z M23.5,23.5h-3.99  c0.01-1.03,0.03-2.03,0.07-3h3.92V23.5z M23.5,19.5h-3.87c0.06-1.04,0.14-2.04,0.24-3h3.63V19.5z M23.5,15.5h-3.52  c0.13-1.06,0.27-2.07,0.44-3h3.08V15.5z M23.5,11.5h-2.9c0.23-1.12,0.48-2.12,0.75-3h2.14V11.5z M23.5,7.5h-1.8  c0.56-1.51,1.18-2.49,1.8-2.84V7.5z M41.52,15.5h-3.44c-0.36-1.05-0.78-2.06-1.26-3h2.89C40.4,13.44,41.01,14.44,41.52,15.5z   M33.54,15.5c-0.25-1.05-0.53-2.06-0.86-3h3c0.51,0.94,0.96,1.94,1.35,3H33.54z M37.38,16.5c0.3,0.96,0.53,1.97,0.71,3h-3.86  c-0.12-1.03-0.28-2.03-0.47-3H37.38z M29.02,15.5c-0.12-1.04-0.26-2.04-0.43-3h3.06c0.34,0.94,0.63,1.94,0.88,3H29.02z M32.77,16.5  c0.2,0.96,0.35,1.97,0.47,3h-3.87c-0.06-1.02-0.14-2.02-0.24-3H32.77z M29.37,28.5h3.87c-0.12,1.03-0.27,2.04-0.47,3h-3.64  C29.23,30.52,29.31,29.52,29.37,28.5z M29.42,27.5c0.04-1,0.07-2,0.08-3h3.99c-0.01,1.02-0.06,2.02-0.15,3H29.42z M29.5,23.5  c-0.01-1-0.03-2-0.08-3h3.92c0.09,0.98,0.14,1.98,0.15,3H29.5z M32.3,11.5c-0.43-1.09-0.92-2.1-1.45-3h1.91  c0.86,0.88,1.66,1.88,2.35,3H32.3z M31.28,11.5h-2.87c-0.21-1.08-0.46-2.09-0.73-3h2.06C30.31,9.38,30.83,10.38,31.28,11.5z   M29.02,32.5h3.51c-0.25,1.06-0.55,2.06-0.88,3h-3.06C28.76,34.54,28.9,33.54,29.02,32.5z M31.28,36.5c-0.46,1.12-0.98,2.12-1.54,3  h-2.06c0.27-0.91,0.52-1.92,0.73-3H31.28z M32.3,36.5h2.81c-0.7,1.12-1.49,2.12-2.35,3h-1.91C31.39,38.6,31.87,37.59,32.3,36.5z   M32.69,35.5c0.33-0.94,0.61-1.95,0.86-3h3.49c-0.38,1.06-0.83,2.06-1.35,3H32.69z M33.76,31.5c0.2-0.97,0.36-1.97,0.47-3h3.86  c-0.18,1.03-0.41,2.04-0.71,3H33.76z M34.34,27.5c0.09-0.98,0.14-1.98,0.15-3h3.99c-0.02,1.02-0.1,2.02-0.23,3H34.34z M34.49,23.5  c-0.01-1.02-0.06-2.02-0.15-3h3.92c0.13,0.98,0.21,1.98,0.23,3H34.49z M38.95,11.5h-2.69c-0.64-1.09-1.35-2.1-2.14-3h1.67  C36.94,9.38,38.01,10.38,38.95,11.5z M34.34,7.5h-1.19c-0.59-0.57-1.19-1.1-1.84-1.56C32.38,6.37,33.39,6.9,34.34,7.5z M31.69,7.5  H30.2c-0.55-0.8-1.15-1.49-1.78-2.06C29.59,5.94,30.68,6.64,31.69,7.5z M29.04,7.5h-1.68c-0.34-0.97-0.73-1.8-1.15-2.45  C27.22,5.55,28.18,6.39,29.04,7.5z M24.5,4.66c0.62,0.35,1.24,1.33,1.8,2.84h-1.8V4.66z M24.5,8.5h2.14c0.27,0.88,0.53,1.88,0.75,3  h-2.9V8.5z M24.5,12.5h3.08c0.17,0.93,0.31,1.94,0.44,3H24.5V12.5z M24.5,16.5h3.63c0.1,0.96,0.18,1.96,0.24,3H24.5V16.5z   M24.5,20.5h3.92c0.04,0.97,0.07,1.97,0.07,3H24.5V20.5z M24.5,24.5h3.99c-0.01,1.03-0.03,2.03-0.07,3H24.5V24.5z M24.5,28.5h3.87  c-0.06,1.04-0.14,2.04-0.24,3H24.5V28.5z M24.5,32.5h3.52c-0.13,1.06-0.27,2.07-0.44,3H24.5V32.5z M24.5,36.5h2.9  c-0.23,1.12-0.48,2.12-0.75,3H24.5V36.5z M24.5,43.34V40.5h1.8C25.74,42.01,25.12,42.99,24.5,43.34z M26.2,42.95  c0.42-0.65,0.81-1.47,1.15-2.45h1.68C28.18,41.61,27.22,42.45,26.2,42.95z M30.2,40.5h1.49c-1.01,0.86-2.1,1.56-3.27,2.06  C29.06,41.99,29.65,41.3,30.2,40.5z M31.32,42.06c0.64-0.46,1.25-0.99,1.84-1.56h1.19C33.39,41.1,32.38,41.63,31.32,42.06z   M35.78,39.5h-1.67c0.79-0.9,1.5-1.91,2.14-3h2.69C38.01,37.62,36.94,38.62,35.78,39.5z M39.71,35.5h-2.89  c0.49-0.94,0.9-1.95,1.26-3h3.44C41.01,33.56,40.4,34.56,39.71,35.5z M42,31.5h-3.58c0.29-0.97,0.53-1.97,0.7-3h3.84  C42.71,29.53,42.4,30.54,42,31.5z M43.17,27.5h-3.91c0.13-0.98,0.21-1.98,0.22-3h3.99C43.45,25.52,43.35,26.52,43.17,27.5z   M43.47,23.5h-3.99c-0.02-1.02-0.1-2.02-0.22-3h3.91C43.35,21.48,43.45,22.48,43.47,23.5z M39.11,19.5c-0.18-1.03-0.41-2.03-0.7-3  H42c0.4,0.96,0.71,1.97,0.96,3H39.11z"/><text x="0" y="63" fill="#000000" font-size="5px" font-weight="bold" font-family="'Helvetica Neue', Helvetica, Arial-Unicode, Arial, Sans-serif">Created by fahmionline</text><text x="0" y="68" fill="#000000" font-size="5px" font-weight="bold" font-family="'Helvetica Neue', Helvetica, Arial-Unicode, Arial, Sans-serif">from the Noun Project</text></svg>